<svg width="102" height="96" viewBox="0 0 102 96" fill="none" xmlns="http://www.w3.org/2000/svg">
<g id="&#209;&#128;">
<path id="path30" fill-rule="evenodd" clip-rule="evenodd" d="M45.5482 83.3027L27.3157 82.8803L25.8206 67.8158L11.0586 56.3283C10.6598 54.5734 10.4785 52.7764 10.5203 50.974C10.5901 47.9623 11.2789 45.0023 12.5472 42.283L38.5035 70.314L13.4051 37.1744C14.5199 32.9776 16.8587 29.2245 20.1149 26.4144L42.3436 67.7325L22.8441 22.608C25.5841 19.0645 29.353 16.4935 33.6064 15.2621L46.602 66.2104L37.471 13.2618C40.6615 11.5235 44.2412 10.6548 47.8554 10.7385C48.6205 10.7562 49.385 10.8156 50.144 10.9178L50.9837 65.7792L54.3665 11.0156C55.1249 10.9486 55.8913 10.9247 56.6563 10.9424C60.2722 11.0262 63.8045 12.0597 66.9127 13.9439L55.3378 66.4128L70.6823 16.121C74.8752 17.5482 78.5181 20.2908 81.0911 23.9575L59.524 68.1305L83.6411 27.8862C86.7637 30.844 88.9261 34.7027 89.8455 38.9453L63.238 70.887L90.4658 44.0882C91.6056 46.8633 92.1578 49.852 92.0881 52.8638C92.0463 54.6661 91.7837 56.4528 91.2995 58.1873L76.0259 68.979L73.8343 83.9581L55.6005 83.5356L52.8568 85.4744C52.1672 85.9604 51.346 86.2115 50.5108 86.1921C49.6744 86.1727 48.8673 85.8839 48.2021 85.3666L45.5482 83.3027ZM44.561 92.1071L19.4726 91.5259L17.5885 72.5146L2.63361 60.877C2.0468 57.5458 1.78896 54.1587 1.86738 50.7736C2.51198 22.9503 25.1846 0.88153 52.4726 1.51373C79.7593 2.1459 101.384 25.2409 100.739 53.0642C100.661 56.4494 100.248 59.8209 99.5077 63.1213L84.0315 74.054L81.2674 92.9575L56.1806 92.3763L54.7081 93.4168C53.4172 94.3281 51.8778 94.7986 50.3122 94.7623C48.7454 94.726 47.2278 94.1847 45.9838 93.2147L44.561 92.1071Z" fill="white"/>
</g>
</svg>
